<svg width="56" height="56" viewBox="0 0 56 56" fill="none" xmlns="http://www.w3.org/2000/svg">
<path d="M23.3333 46.6666L20.4167 40.8333L14 41.9999" stroke="white" stroke-width="5" stroke-linecap="round" stroke-linejoin="round"/>
<path d="M23.3333 9.33325L20.4167 15.1666L14 13.9999" stroke="white" stroke-width="5" stroke-linecap="round" stroke-linejoin="round"/>
<path d="M32.666 46.6666L35.5827 40.8333L41.9993 41.9999" stroke="white" stroke-width="5" stroke-linecap="round" stroke-linejoin="round"/>
<path d="M32.666 9.33325L35.5827 15.1666L41.9993 13.9999" stroke="white" stroke-width="5" stroke-linecap="round" stroke-linejoin="round"/>
<path d="M39.6673 49L32.6673 35H23.334" stroke="white" stroke-width="5" stroke-linecap="round" stroke-linejoin="round"/>
<path d="M39.666 7L32.666 21L36.166 28" stroke="white" stroke-width="5" stroke-linecap="round" stroke-linejoin="round"/>
<path d="M4.66602 28H19.8327L23.3327 21" stroke="white" stroke-width="5" stroke-linecap="round" stroke-linejoin="round"/>
<path d="M46.666 23.3333L43.166 27.9999L46.666 32.6666" stroke="white" stroke-width="5" stroke-linecap="round" stroke-linejoin="round"/>
<path d="M51.3327 28H36.166L32.666 35" stroke="white" stroke-width="5" stroke-linecap="round" stroke-linejoin="round"/>
<path d="M9.33398 23.3333L12.834 27.9999L9.33398 32.6666" stroke="white" stroke-width="5" stroke-linecap="round" stroke-linejoin="round"/>
<path d="M16.334 49L23.334 35L19.834 28" stroke="white" stroke-width="5" stroke-linecap="round" stroke-linejoin="round"/>
<path d="M16.334 7L23.334 21H32.6673" stroke="white" stroke-width="5" stroke-linecap="round" stroke-linejoin="round"/>
</svg>
