<svg width="56" height="56" viewBox="0 0 56 56" fill="none" xmlns="http://www.w3.org/2000/svg">
<path d="M29.866 45.7333C30.4576 46.1769 31.1461 46.4737 31.8748 46.599C32.6036 46.7244 33.3517 46.6748 34.0575 46.4543C34.7633 46.2338 35.4066 45.8488 35.9344 45.3309C36.4622 44.813 36.8594 44.1771 37.0932 43.4756C37.327 42.7742 37.3908 42.0271 37.2793 41.2961C37.1678 40.5652 36.8842 39.8711 36.4518 39.2713C36.0195 38.6714 35.4507 38.1829 34.7925 37.8459C34.1343 37.509 33.4055 37.3333 32.666 37.3333H4.66602" stroke="#E1E1E1" stroke-width="5" stroke-linecap="round" stroke-linejoin="round"/>
<path d="M40.8327 18.6666C41.4293 17.8711 42.2193 17.2414 43.1278 16.8371C44.0362 16.4329 45.0329 16.2675 46.0232 16.3568C47.0135 16.4461 47.9646 16.7871 48.7861 17.3473C49.6075 17.9076 50.2722 18.6685 50.7168 19.5578C51.1615 20.4472 51.3715 21.4355 51.3268 22.4288C51.2821 23.4221 50.9842 24.3875 50.4615 25.2334C49.9387 26.0792 49.2084 26.7773 48.34 27.2615C47.4715 27.7458 46.4937 27.9999 45.4994 27.9999H4.66602" stroke="#E1E1E1" stroke-width="5" stroke-linecap="round" stroke-linejoin="round"/>
<path d="M22.866 10.2666C23.4576 9.82292 24.1461 9.52618 24.8748 9.40081C25.6036 9.27545 26.3517 9.32504 27.0575 9.54552C27.7633 9.766 28.4066 10.151 28.9344 10.6689C29.4622 11.1868 29.8594 11.8227 30.0932 12.5242C30.327 13.2257 30.3908 13.9727 30.2793 14.7037C30.1678 15.4347 29.8842 16.1287 29.4518 16.7286C29.0195 17.3284 28.4507 17.817 27.7925 18.1539C27.1343 18.4909 26.4055 18.6666 25.666 18.6666H4.66602" stroke="#E1E1E1" stroke-width="5" stroke-linecap="round" stroke-linejoin="round"/>
</svg>
