<svg width="56" height="56" viewBox="0 0 56 56" fill="none" xmlns="http://www.w3.org/2000/svg">
<path d="M48.9656 29.134C48.7469 33.185 47.3595 37.086 44.9711 40.3653C42.5827 43.6446 39.2955 46.162 35.507 47.6129C31.7184 49.0639 27.5907 49.3865 23.6227 48.5416C19.6547 47.6967 16.0165 45.7206 13.1476 42.8521C10.2788 39.9836 8.3023 36.3455 7.457 32.3776C6.61171 28.4097 6.93382 24.282 8.38441 20.4933C9.835 16.7046 12.352 13.4171 15.631 11.0284C18.9101 8.63963 22.8109 7.25181 26.8619 7.0327C27.8069 6.98137 28.3016 8.10604 27.7999 8.90637C26.122 11.591 25.4035 14.7651 25.7617 17.9106C26.12 21.0561 27.5337 23.9874 29.7723 26.226C32.0109 28.4645 34.9422 29.8783 38.0877 30.2365C41.2332 30.5948 44.4073 29.8763 47.0919 28.1984C47.8946 27.6967 49.0169 28.189 48.9656 29.134Z" stroke="white" stroke-width="5" stroke-linecap="round" stroke-linejoin="round"/>
</svg>
