<svg width="56" height="56" viewBox="0 0 56 56" fill="none" xmlns="http://www.w3.org/2000/svg">
<path d="M40.8324 48.9999H20.9991C17.9701 48.9991 15.001 48.1561 12.4235 46.565C9.84611 44.9739 7.76189 42.6975 6.40377 39.99C5.04566 37.2826 4.46716 34.2508 4.73292 31.2335C4.99868 28.2162 6.09824 25.3322 7.90871 22.9039C9.71919 20.4755 12.1693 18.5984 14.9851 17.4824C17.801 16.3663 20.8718 16.0553 23.8543 16.584C26.8367 17.1127 29.6135 18.4604 31.8741 20.4763C34.1348 22.4923 35.7903 25.0972 36.6557 27.9999H40.8324C42.2113 27.9999 43.5767 28.2715 44.8506 28.7992C46.1245 29.3269 47.282 30.1003 48.257 31.0753C49.232 32.0503 50.0055 33.2078 50.5331 34.4817C51.0608 35.7557 51.3324 37.121 51.3324 38.4999C51.3324 39.8788 51.0608 41.2442 50.5331 42.5181C50.0055 43.792 49.232 44.9495 48.257 45.9245C47.282 46.8996 46.1245 47.673 44.8506 48.2007C43.5767 48.7283 42.2113 48.9999 40.8324 48.9999Z" stroke="#E1E1E1" stroke-width="5" stroke-linecap="round" stroke-linejoin="round"/>
<path d="M51.3339 23.3332C51.3339 21.4767 50.5964 19.6962 49.2836 18.3835C47.9709 17.0707 46.1904 16.3332 44.3339 16.3332H39.1842C38.3926 13.548 36.6827 11.1121 34.3322 9.42125C31.9817 7.73037 29.1285 6.88375 26.2361 7.01888C23.3438 7.15401 20.582 8.26296 18.3993 10.1656C16.2167 12.0683 14.7413 14.653 14.2129 17.4999" stroke="#E1E1E1" stroke-width="5" stroke-linecap="round" stroke-linejoin="round"/>
</svg>
