<svg width="56" height="56" viewBox="0 0 56 56" fill="none" xmlns="http://www.w3.org/2000/svg">
<path d="M30.3342 37.3333C32.1907 37.3333 33.9712 38.0708 35.284 39.3836C36.5967 40.6963 37.3342 42.4768 37.3342 44.3333C37.3342 46.1898 36.5967 47.9703 35.284 49.2831C33.9712 50.5958 32.1907 51.3333 30.3342 51.3333H16.3342C14.1268 51.3329 11.9648 50.7062 10.0994 49.5261C8.23391 48.346 6.74152 46.6608 5.79554 44.6664C4.84956 42.672 4.48881 40.4501 4.75519 38.2588C5.02156 36.0675 5.90413 33.9968 7.30039 32.2871C8.69665 30.5774 10.5493 29.2989 12.6432 28.6001C14.737 27.9012 16.9862 27.8108 19.1294 28.3392C21.2726 28.8676 23.222 29.9932 24.751 31.5853C26.2801 33.1774 27.3261 35.1705 27.7675 37.3333H30.3342Z" stroke="white" stroke-width="5" stroke-linecap="round" stroke-linejoin="round"/>
<path d="M42.8782 33.8614C44.8816 32.9967 46.6552 31.6756 48.0573 30.0036C49.4594 28.3317 50.4513 26.3551 50.9539 24.2317C51.2992 22.7734 49.4162 21.9684 48.0419 22.5657C46.3248 23.3085 44.4241 23.5181 42.5864 23.1673C40.7487 22.8165 39.0589 21.9215 37.7361 20.5985C36.4134 19.2755 35.5187 17.5855 35.1683 15.7477C34.8178 13.91 35.0278 12.0093 35.7709 10.2924C36.3659 8.91805 35.5609 7.03739 34.1002 7.38039C31.2209 8.06449 28.6325 9.64342 26.7066 11.8904C24.7807 14.1375 23.6164 16.937 23.3809 19.8871" stroke="white" stroke-width="5" stroke-linecap="round" stroke-linejoin="round"/>
</svg>
