<svg width="56" height="56" viewBox="0 0 56 56" fill="none" xmlns="http://www.w3.org/2000/svg">
<path d="M28 4.66675V9.33341" stroke="#F9C722" stroke-width="5" stroke-linecap="round" stroke-linejoin="round"/>
<path d="M11.5039 11.5034L14.7939 14.7934" stroke="#F9C722" stroke-width="5" stroke-linecap="round" stroke-linejoin="round"/>
<path d="M46.666 28H51.3327" stroke="#F9C722" stroke-width="5" stroke-linecap="round" stroke-linejoin="round"/>
<path d="M44.497 11.5034L41.207 14.7934" stroke="#F9C722" stroke-width="5" stroke-linecap="round" stroke-linejoin="round"/>
<path d="M37.2098 29.5167C37.4969 27.7771 37.2855 25.9919 36.6001 24.3676C35.9146 22.7432 34.783 21.3463 33.3365 20.3384C31.8899 19.3306 30.1874 18.7531 28.4262 18.6728C26.665 18.5925 24.9171 19.0126 23.3848 19.8847" stroke="#F9C722" stroke-width="5" stroke-linecap="round" stroke-linejoin="round"/>
<path d="M30.3342 51.3333H16.3342C14.1268 51.3329 11.9648 50.7062 10.0994 49.5261C8.23391 48.346 6.74152 46.6608 5.79554 44.6664C4.84956 42.672 4.48881 40.4501 4.75519 38.2588C5.02156 36.0675 5.90413 33.9968 7.30039 32.2871C8.69665 30.5774 10.5493 29.2989 12.6432 28.6001C14.737 27.9012 16.9862 27.8108 19.1294 28.3392C21.2726 28.8676 23.222 29.9932 24.751 31.5853C26.2801 33.1774 27.3261 35.1705 27.7675 37.3333H30.3342C32.1907 37.3333 33.9712 38.0708 35.284 39.3836C36.5967 40.6963 37.3342 42.4768 37.3342 44.3333C37.3342 46.1898 36.5967 47.9703 35.284 49.2831C33.9712 50.5958 32.1907 51.3333 30.3342 51.3333Z" stroke="white" stroke-width="5" stroke-linecap="round" stroke-linejoin="round"/>
</svg>
