<svg width="56" height="56" viewBox="0 0 56 56" fill="none" xmlns="http://www.w3.org/2000/svg">
<path d="M9.3325 34.7642C7.59893 32.993 6.29116 30.8505 5.50824 28.4991C4.72533 26.1476 4.48781 23.6488 4.81367 21.1919C5.13953 18.735 6.02023 16.3846 7.38905 14.3185C8.75787 12.2524 10.5789 10.5249 12.7143 9.26684C14.8496 8.00879 17.2433 7.25318 19.7139 7.05723C22.1845 6.86129 24.6673 7.23016 26.9743 8.13589C29.2812 9.04163 31.3518 10.4605 33.0292 12.285C34.7066 14.1095 35.9468 16.2918 36.6558 18.6665H40.8325C43.0854 18.6663 45.2786 19.3906 47.0881 20.7326C48.8977 22.0745 50.2277 23.9629 50.8816 26.1188C51.5356 28.2746 51.4787 30.5837 50.7196 32.7048C49.9604 34.8259 48.5392 36.6465 46.6658 37.8979" stroke="#E5F1FF" stroke-width="5" stroke-linecap="round" stroke-linejoin="round"/>
<path d="M37.334 32.6667V46.6667" stroke="#E5F1FF" stroke-width="5" stroke-linecap="round" stroke-linejoin="round"/>
<path d="M18.666 32.6667V46.6667" stroke="#E5F1FF" stroke-width="5" stroke-linecap="round" stroke-linejoin="round"/>
<path d="M28 37.3333V51.3333" stroke="#E5F1FF" stroke-width="5" stroke-linecap="round" stroke-linejoin="round"/>
</svg>
